<?xml version="1.0" encoding="UTF-8" standalone="no"?>
<!DOCTYPE svg PUBLIC "-//W3C//DTD SVG 1.1//EN"
 "http://www.w3.org/Graphics/SVG/1.1/DTD/svg11.dtd">
<!-- Generated by graphviz version 2.36.0 (20140111.2315)
 -->
<!-- Title: G Pages: 1 -->
<svg width="134pt" height="116pt"
 viewBox="0.00 0.00 134.00 116.00" xmlns="http://www.w3.org/2000/svg" xmlns:xlink="http://www.w3.org/1999/xlink">
<g id="graph0" class="graph" transform="scale(1 1) rotate(0) translate(4 112)">
<title>G</title>
<polygon fill="white" stroke="none" points="-4,4 -4,-112 130,-112 130,4 -4,4"/>
<!-- x0 -->
<g id="node1" class="node"><title>x0</title>
<ellipse fill="none" stroke="black" cx="27" cy="-90" rx="27" ry="18"/>
<text text-anchor="middle" x="27" y="-85.8" font-family="Times,serif" font-size="14.00">a</text>
</g>
<!-- x2 -->
<g id="node3" class="node"><title>x2</title>
<ellipse fill="none" stroke="black" cx="63" cy="-18" rx="35.4587" ry="18"/>
<text text-anchor="middle" x="63" y="-13.8" font-family="Times,serif" font-size="14.00">Int32.+</text>
</g>
<!-- x0&#45;&gt;x2 -->
<g id="edge1" class="edge"><title>x0&#45;&gt;x2</title>
<path fill="none" stroke="black" d="M35.3496,-72.7646C39.6492,-64.4043 44.9918,-54.0159 49.8312,-44.6059"/>
<polygon fill="black" stroke="black" points="52.9847,-46.127 54.4457,-35.6334 46.7596,-42.9256 52.9847,-46.127"/>
</g>
<!-- x1 -->
<g id="node2" class="node"><title>x1</title>
<ellipse fill="none" stroke="black" cx="99" cy="-90" rx="27" ry="18"/>
<text text-anchor="middle" x="99" y="-85.8" font-family="Times,serif" font-size="14.00">b</text>
</g>
<!-- x1&#45;&gt;x2 -->
<g id="edge2" class="edge"><title>x1&#45;&gt;x2</title>
<path fill="none" stroke="black" d="M90.6504,-72.7646C86.3508,-64.4043 81.0082,-54.0159 76.1688,-44.6059"/>
<polygon fill="black" stroke="black" points="79.2404,-42.9256 71.5543,-35.6334 73.0153,-46.127 79.2404,-42.9256"/>
</g>
</g>
</svg>
